Coordinates
version=1
nRows=16
nColumns=36
inDegrees=yes

Units are S.I. units (second, meters, Newtons, ...)
If the header above contains a line with 'inDegrees', this indicates whether rotational values are in degrees (yes) or radians (no).

endheader
time	pelvis_tilt	pelvis_list	pelvis_rotation	pelvis_tx	pelvis_ty	pelvis_tz	hip_flexion_r	hip_adduction_r	hip_rotation_r	knee_angle_r	knee_angle_r_beta	ankle_angle_r	subtalar_angle_r	mtp_angle_r	hip_flexion_l	hip_adduction_l	hip_rotation_l	knee_angle_l	knee_angle_l_beta	ankle_angle_l	subtalar_angle_l	mtp_angle_l	lumbar_extension	lumbar_bending	lumbar_rotation	arm_flex_r	arm_add_r	arm_rot_r	elbow_flex_r	pro_sup_r	arm_flex_l	arm_add_l	arm_rot_l	elbow_flex_l	pro_sup_l
      4.92500000	     -4.48828679	      1.42506873	     -4.01243331	      0.30298409	      0.93768176	     -0.12766339	     11.71579566	     -6.84151187	      3.38778626	      7.74842423	      0.13523551	      2.21359509	    -22.55176395	     -7.49999987	      9.46448612	     -0.91603195	     -9.35374716	      5.16501476	      0.09014651	      9.26674328	    -10.30135670	     -7.49999987	     -2.64142613	      0.42745949	     -5.16117954	      2.40992614	    -11.27418697	     -8.08617122	     29.54500624	     69.25301945	      9.13675754	    -10.51062608	     13.84702690	     30.84792420	     67.66391245
      4.92916670	     -4.29335271	      1.35162413	     -4.09643552	      0.30261158	      0.93817021	     -0.12722998	     11.42013439	     -6.70853073	      3.23052685	      7.58842258	      0.13244296	      2.51149698	    -21.87704483	     -7.49999987	      9.25322280	     -0.99228215	     -9.13741236	      5.22089989	      0.09112189	      9.23931974	    -10.19423386	     -7.49999987	     -3.04215019	      0.44912158	     -5.42630517	      2.69128738	    -10.91474015	     -8.11928505	     30.47288315	     68.75405137	      9.25591870	    -10.66624684	     13.73651526	     31.47788547	     67.36064554
      4.93333330	     -4.32076929	      1.31724349	     -4.23037749	      0.30167623	      0.93215303	     -0.12644536	     11.48484868	     -6.59929863	      3.16699568	      7.61919981	      0.13298012	      2.59557656	    -21.81402711	     -7.49999987	      9.33854508	     -1.06135206	     -9.05069397	      5.35154297	      0.09340204	      9.25746897	    -10.13477739	     -7.49999987	     -2.90982192	      0.35708827	     -5.43439231	      2.89977855	    -10.74360049	     -8.07680884	     30.66911683	     68.75973361	      9.52715883	    -10.67592213	     13.73597744	     31.65119074	     67.37092769
      4.93750000	     -4.28480554	      1.24721470	     -4.31437125	      0.30135312	      0.93091227	     -0.12633517	     11.43495945	     -6.51449559	      2.91018028	      7.56214779	      0.13198438	      2.96392969	    -21.26994977	     -7.49999987	      9.36945955	     -1.12736460	     -8.77001770	      5.44313958	      0.09500071	      9.35606506	     -9.91790290	     -7.49999987	     -3.05686246	      0.37230969	     -5.69620337	      3.01712618	    -10.48679644	     -8.01216560	     31.77107747	     68.38694013	      9.60026752	    -10.90421245	     13.93228107	     32.55249870	     67.24412573
      4.94166670	     -4.28846736	      1.19022113	     -4.39461503	      0.30196644	      0.93220960	     -0.12591277	     11.44387238	     -6.43567121	      2.85578259	      7.53101804	      0.13144106	      2.98683139	    -21.29524332	     -7.49999987	      9.39610726	     -1.21484755	     -8.64573872	      5.50956947	      0.09616013	      9.42234864	     -9.71294192	     -7.49999987	     -3.02037984	      0.34587098	     -5.82754116	      3.15574995	    -10.27767013	     -7.92415043	     32.36058338	     68.23330803	      9.74472214	    -11.00345779	     14.04638188	     33.06774468	     67.28275871
      4.94583330	     -4.31438507	      1.16728231	     -4.50139081	      0.30126711	      0.93700078	     -0.12679260	     11.50142462	     -6.38926255	      2.85127454	      7.54660617	      0.13171313	      2.99171720	    -21.23412387	     -7.49999987	      9.43715711	     -1.27395017	     -8.58888506	      5.59214478	      0.09760134	      9.39471657	     -9.66845369	     -7.49999987	     -2.88448785	      0.26676689	     -5.87077811	      3.31047195	    -10.12946450	     -7.87867235	     32.48255421	     68.25760151	      9.99057643	    -10.95411843	     14.06347106	     33.19204836	     67.31032961
      4.95000000	     -4.38942856	      1.13561017	     -4.57494616	      0.29885445	      0.93681855	     -0.12582835	     11.64026559	     -6.32041743	      3.03744061	      7.43735252	      0.12980629	      2.92930565	    -21.38144478	     -7.49999987	      9.61488990	     -1.38766067	     -8.57526200	      5.73532437	      0.10010029	      9.31474405	     -9.84583193	     -7.49999987	     -2.91345248	      0.22910568	     -5.90883458	      3.52679217	    -10.09265127	     -7.00731233	     32.89557280	     69.98190706	     10.43355178	    -11.20255340	     15.03359566	     33.43602482	     69.61811494
      4.95416670	     -4.40164955	      1.12989478	     -4.62430622	      0.30176230	      0.93541136	     -0.12657518	     11.65482428	     -6.31854888	      3.02659425	      7.39335138	      0.12903832	      2.88910130	    -21.33851087	     -7.49999987	      9.60056311	     -1.46547919	     -8.56664692	      5.74114144	      0.10020182	      9.30750928	     -9.86144059	     -7.49999987	     -2.81804634	      0.16690493	     -5.97741433	      3.69739989	     -9.94941959	     -6.98465889	     32.99154431	     70.00165355	     10.70956962	    -11.12044934	     15.02245127	     33.54781292	     69.63693399
      4.95833330	     -4.29935723	      1.11205313	     -4.63448669	      0.30250442	      0.94452891	     -0.12647872	     11.43956493	     -6.34803252	      2.82803100	      7.21410016	      0.12590980	      2.87205920	    -20.66022935	     -7.49999987	      9.44324413	     -1.48534226	     -8.43825865	      5.74978459	      0.10035267	      8.99251335	    -10.07973249	     -7.49999987	     -3.18510121	      0.16792730	     -6.20108572	      3.84540580	     -9.57633177	     -7.98707756	     33.71359054	     74.30544891	     10.74441100	    -11.02343907	     13.52540974	     34.19429338	     74.34272371
      4.96250000	     -4.30653418	      1.08145084	     -4.71625545	      0.30288467	      0.93675379	     -0.12515974	     11.43489875	     -6.31024965	      2.79883046	      7.12515344	      0.12435739	      2.88354030	    -20.63100651	     -7.49999987	      9.40448148	     -1.55624351	     -8.47739132	      5.73426307	      0.10008177	      9.04516194	    -10.11781312	     -7.49999987	     -3.05670146	      0.12612355	     -6.24323041	      4.01530730	     -9.42864947	     -7.93615441	     33.82193244	     74.31276936	     11.02965603	    -10.94998025	     13.52948954	     34.32906622	     74.34672274
      4.96666670	     -4.58800519	      1.09282734	     -4.77975575	      0.30255522	      0.93287493	     -0.12526057	     11.74670099	     -6.29398911	      2.62004073	      7.11150185	      0.12411912	      3.18356949	    -19.95450929	     -7.49999987	      9.70833819	     -1.63114764	     -8.54756277	      5.82945341	      0.10174316	      9.23340024	    -10.09328477	     -7.49999987	     -2.73145890	      0.08082578	     -6.27485596	      3.74749946	     -9.32500487	     -7.80464962	     34.86145749	     73.74658410	     10.95451367	    -11.02734625	     13.52368095	     35.32522897	     73.79134868
      4.97083330	     -4.05495324	      1.02230493	     -4.85004364	      0.30345686	      0.93803616	     -0.12506292	     11.03379045	     -6.26261602	      2.59641273	      6.88740149	      0.12020783	      2.99950550	    -19.98890048	     -7.49999987	      8.99981999	     -1.69247859	     -8.61132837	      5.65116699	      0.09863147	      9.05663826	    -10.21663152	     -7.49999987	     -3.48561118	      0.05517396	     -6.36106523	      4.06567097	     -9.24463647	     -7.27630487	     35.27942539	     73.95256471	     11.37932178	    -11.14888137	     13.81175290	     35.69561042	     74.01693305
      4.97500000	     -3.97742342	      0.99800028	     -4.90030898	      0.30202993	      0.93788277	     -0.12639112	     10.94543081	     -6.24610866	      2.47692582	      6.95232083	      0.12134089	      2.98393482	    -19.89063085	     -7.49999987	      8.92156300	     -1.74654912	     -8.67724152	      5.67120262	      0.09898116	      9.03589975	    -10.34108754	     -7.49999987	     -3.59327193	      0.01940013	     -6.43363123	      4.25537095	     -9.17114119	     -6.87162741	     35.71451397	     73.74979922	     11.61976517	    -11.21029348	     13.96443334	     36.14722806	     73.84982766
      4.97916670	     -3.97524373	      0.99459944	     -4.89728240	      0.30148675	      0.93812431	     -0.12653769	     10.94989313	     -6.23867450	      2.41850158	      7.05870858	      0.12319771	      2.98679842	    -19.86997657	     -7.49999987	      8.96520988	     -1.75779214	     -8.70161771	      5.76434643	      0.10060682	      8.92748247	    -10.44464049	     -7.49999987	     -3.59943987	     -0.04848360	     -6.55961153	      4.51838527	     -9.21272017	     -5.86658952	     35.85569902	     73.94781076	     11.90782393	    -11.31825113	     14.40432286	     36.44055952	     74.18748836
      4.98333330	     -3.79546884	      0.94916081	     -4.89628959	      0.30275030	      0.93896773	     -0.12550479	     10.71815782	     -6.20984143	      2.19207100	      7.15964973	      0.12495946	      3.32856326	    -19.33544846	     -7.49999987	      8.73434555	     -1.80900519	     -8.84867603	      5.78409131	      0.10095144	      8.75131492	    -10.48088538	     -7.49999987	     -3.85638622	     -0.05565307	     -6.76560626	      4.67568494	     -8.99744562	     -5.75588466	     36.52883243	     72.65308554	     12.05790207	    -11.37668779	     14.23167881	     36.98955220	     72.96282312
      4.98750000	     -3.70580206	      0.88183805	     -4.90090738	      0.30300085	      0.93926231	     -0.12575429	     10.60841194	     -6.13991596	      2.10956356	      7.27214720	      0.12692291	      3.22010445	    -19.57718993	     -7.49999987	      8.64906969	     -1.91008800	     -8.97732432	      5.89427311	      0.10287447	      8.67929547	    -10.57306974	     -7.49999987	     -3.99788793	     -0.04661212	     -6.80399164	      4.84024633	     -8.94270814	     -5.36281632	     36.81350105	     72.12785893	     12.36973599	    -11.31973458	     14.31110992	     37.39111510	     72.49801672
